<svg width="255" height="309" viewBox="0 0 255 309" fill="none" xmlns="http://www.w3.org/2000/svg">
<path d="M236.395 268.845H231.449C230.621 264.422 212.508 258.642 211.837 253H31.5C31.0917 257.974 23.977 263.559 23.7732 268.845H23.4367C13.2587 268.845 5 277.763 5 288.768C5 299.774 13.2587 308.692 23.4367 308.692H236.395C246.573 308.692 254.832 299.774 254.832 288.768C254.832 277.763 246.573 268.957 236.395 268.957V268.845Z" fill="#5D9948"/>
<path d="M14.4304 166.579C15.8581 168.765 18.0438 170.25 20.4926 170.705C22.929 171.16 25.4496 170.543 27.4778 168.993L60.9424 143.387C65.0714 140.223 70.7006 140.624 74.4221 144.354C83.532 153.472 96.3634 156.858 108.33 153.31C117.537 150.586 125.17 144.017 129.851 135.307C131.604 149.906 125.002 172.495 84.6002 200.921C47.1857 227.246 23.6607 254.602 10.9736 291.679H204.715C206.947 270.4 212.144 246.813 222.948 222.219C245.525 182.54 270.887 110.383 211.604 43.5175C162.127 -12.2842 118.113 -5.62301 93.4338 5.80454C81.4313 11.3548 75.7295 26.0709 80.2428 39.184L52.5633 11.4783C51.016 9.9287 48.6991 9.66932 46.8747 10.8419C45.0618 12.0229 44.185 14.3581 44.7261 16.5691L53.8599 54.081C50.5228 57.0575 47.462 60.3977 45.0849 64.4185L2.19862 136.999C0.158072 140.468 0.253775 144.924 2.45022 148.284L14.4304 166.579Z" fill="#5D9948"/>
</svg>
