<svg width="153" height="80" viewBox="0 0 153 80" fill="none" xmlns="http://www.w3.org/2000/svg">
<path d="M54.136 56.576C52.408 56.576 50.712 56.368 49.048 55.952C47.416 55.536 46.072 55.104 45.016 54.656L45.832 51.2C46.888 51.616 48.152 52.016 49.624 52.4C51.128 52.752 52.584 52.928 53.992 52.928C55.496 52.928 56.808 52.688 57.928 52.208C59.08 51.696 59.992 50.976 60.664 50.048C61.336 49.12 61.672 48.016 61.672 46.736C61.672 45.456 61.288 44.4 60.52 43.568C59.784 42.736 58.824 42.016 57.64 41.408C56.456 40.8 55.208 40.208 53.896 39.632C52.84 39.152 51.8 38.64 50.776 38.096C49.784 37.552 48.872 36.912 48.04 36.176C47.208 35.44 46.536 34.576 46.024 33.584C45.544 32.56 45.304 31.36 45.304 29.984C45.304 27.936 45.816 26.208 46.84 24.8C47.896 23.392 49.288 22.32 51.016 21.584C52.744 20.848 54.648 20.48 56.728 20.48C58.296 20.48 59.752 20.656 61.096 21.008C62.472 21.36 63.608 21.728 64.504 22.112L63.784 25.568C63.016 25.248 62.008 24.928 60.76 24.608C59.512 24.288 58.216 24.128 56.872 24.128C54.696 24.128 52.952 24.656 51.64 25.712C50.36 26.736 49.72 28.096 49.72 29.792C49.72 31.008 50.072 32.016 50.776 32.816C51.512 33.616 52.456 34.32 53.608 34.928C54.76 35.504 55.976 36.08 57.256 36.656C58.312 37.136 59.352 37.648 60.376 38.192C61.432 38.736 62.392 39.376 63.256 40.112C64.12 40.848 64.792 41.744 65.272 42.8C65.784 43.824 66.04 45.04 66.04 46.448C66.04 48.464 65.544 50.24 64.552 51.776C63.592 53.28 62.216 54.464 60.424 55.328C58.632 56.16 56.536 56.576 54.136 56.576ZM79.3079 56.144C77.8039 56.144 76.4439 56.112 75.2279 56.048C74.0119 56.016 72.8119 55.984 71.6279 55.952V21.296C73.0679 21.136 74.5719 21.04 76.1399 21.008C77.7079 20.944 79.1799 20.912 80.5559 20.912C84.5879 20.912 87.9479 21.6 90.6359 22.976C93.3239 24.352 95.3239 26.32 96.6359 28.88C97.9799 31.408 98.6519 34.432 98.6519 37.952C98.6519 41.856 97.9319 45.168 96.4919 47.888C95.0519 50.576 92.8919 52.624 90.0119 54.032C87.1319 55.44 83.5639 56.144 79.3079 56.144ZM79.9799 52.592C83.0199 52.592 85.5799 52.064 87.6599 51.008C89.7719 49.92 91.3719 48.288 92.4599 46.112C93.5479 43.936 94.0919 41.248 94.0919 38.048C94.0919 35.232 93.5959 32.816 92.6039 30.8C91.6439 28.752 90.1719 27.184 88.1879 26.096C86.2039 24.976 83.7079 24.416 80.6999 24.416C79.9639 24.416 79.1639 24.432 78.2999 24.464C77.4679 24.496 76.6839 24.56 75.9479 24.656V52.544C76.5559 52.576 77.1639 52.592 77.7719 52.592C78.3799 52.592 79.1159 52.592 79.9799 52.592Z" fill="white"/>
<path d="M51.733 61H50.8523C50.8002 60.7467 50.709 60.5241 50.5788 60.3324C50.451 60.1406 50.2947 59.9796 50.1101 59.8494C49.9278 59.7169 49.7254 59.6174 49.5028 59.5511C49.2803 59.4848 49.0483 59.4517 48.8068 59.4517C48.3665 59.4517 47.9676 59.563 47.6101 59.7855C47.255 60.008 46.9721 60.3359 46.7614 60.7692C46.553 61.2024 46.4489 61.7339 46.4489 62.3636C46.4489 62.9934 46.553 63.5249 46.7614 63.9581C46.9721 64.3913 47.255 64.7192 47.6101 64.9418C47.9676 65.1643 48.3665 65.2756 48.8068 65.2756C49.0483 65.2756 49.2803 65.2424 49.5028 65.1761C49.7254 65.1098 49.9278 65.0116 50.1101 64.8814C50.2947 64.7488 50.451 64.5866 50.5788 64.3949C50.709 64.2008 50.8002 63.9782 50.8523 63.7273H51.733C51.6667 64.099 51.5459 64.4316 51.3707 64.7251C51.1955 65.0187 50.9777 65.2685 50.7173 65.4744C50.4569 65.678 50.1645 65.8331 49.8402 65.9396C49.5182 66.0462 49.1738 66.0994 48.8068 66.0994C48.1866 66.0994 47.6349 65.9479 47.152 65.6449C46.669 65.3419 46.2891 64.911 46.0121 64.3523C45.7351 63.7936 45.5966 63.1307 45.5966 62.3636C45.5966 61.5966 45.7351 60.9337 46.0121 60.375C46.2891 59.8163 46.669 59.3854 47.152 59.0824C47.6349 58.7794 48.1866 58.6278 48.8068 58.6278C49.1738 58.6278 49.5182 58.6811 49.8402 58.7876C50.1645 58.8942 50.4569 59.0504 50.7173 59.2564C50.9777 59.46 51.1955 59.7086 51.3707 60.0021C51.5459 60.2933 51.6667 60.6259 51.733 61ZM53.8805 62.7188V66H53.0424V58.7273H53.8805V61.3977H53.9515C54.0794 61.116 54.2711 60.8923 54.5268 60.7266C54.7849 60.5585 55.1281 60.4744 55.5566 60.4744C55.9283 60.4744 56.2538 60.549 56.5332 60.6982C56.8126 60.8449 57.0292 61.071 57.1831 61.3764C57.3393 61.6795 57.4174 62.0653 57.4174 62.5341V66H56.5794V62.5909C56.5794 62.1577 56.4669 61.8227 56.242 61.5859C56.0195 61.3468 55.7105 61.2273 55.3152 61.2273C55.0405 61.2273 54.7943 61.2853 54.5765 61.4013C54.3611 61.5173 54.1906 61.6866 54.0652 61.9091C53.9421 62.1316 53.8805 62.4015 53.8805 62.7188ZM61.2376 66.1136C60.712 66.1136 60.2586 65.9976 59.8775 65.7656C59.4987 65.5312 59.2063 65.2045 59.0004 64.7855C58.7968 64.3641 58.695 63.8741 58.695 63.3153C58.695 62.7566 58.7968 62.2642 59.0004 61.8381C59.2063 61.4096 59.4928 61.0758 59.8597 60.8366C60.229 60.5952 60.6599 60.4744 61.1523 60.4744C61.4364 60.4744 61.717 60.5218 61.994 60.6165C62.271 60.7112 62.5231 60.8651 62.7504 61.0781C62.9776 61.2888 63.1587 61.5682 63.2937 61.9162C63.4286 62.2642 63.4961 62.6927 63.4961 63.2017V63.5568H59.2915V62.8324H62.6438C62.6438 62.5246 62.5823 62.25 62.4592 62.0085C62.3384 61.767 62.1656 61.5765 61.9407 61.4368C61.7182 61.2971 61.4554 61.2273 61.1523 61.2273C60.8185 61.2273 60.5297 61.3101 60.2859 61.4759C60.0444 61.6392 59.8585 61.8523 59.7283 62.1151C59.5981 62.3778 59.533 62.6596 59.533 62.9602V63.4432C59.533 63.8551 59.604 64.2043 59.7461 64.4908C59.8905 64.7749 60.0906 64.9915 60.3462 65.1406C60.6019 65.2874 60.899 65.3608 61.2376 65.3608C61.4577 65.3608 61.6566 65.33 61.8342 65.2685C62.0141 65.2045 62.1692 65.1098 62.2994 64.9844C62.4296 64.8565 62.5302 64.6979 62.6012 64.5085L63.4109 64.7358C63.3256 65.0104 63.1824 65.2519 62.9812 65.4602C62.7799 65.6662 62.5314 65.8272 62.2354 65.9432C61.9395 66.0568 61.6069 66.1136 61.2376 66.1136ZM68.6346 61.767L67.8817 61.9801C67.8344 61.8546 67.7646 61.7327 67.6722 61.6143C67.5823 61.4936 67.4592 61.3942 67.3029 61.3161C67.1467 61.2379 66.9466 61.1989 66.7028 61.1989C66.369 61.1989 66.0908 61.2758 65.8683 61.4297C65.6481 61.5812 65.538 61.7741 65.538 62.0085C65.538 62.2169 65.6138 62.3814 65.7653 62.5021C65.9168 62.6229 66.1535 62.7235 66.4755 62.804L67.2852 63.0028C67.7728 63.1212 68.1362 63.3023 68.3754 63.5462C68.6145 63.7876 68.734 64.099 68.734 64.4801C68.734 64.7926 68.6441 65.072 68.4641 65.3182C68.2866 65.5644 68.038 65.7585 67.7184 65.9006C67.3988 66.0426 67.0271 66.1136 66.6033 66.1136C66.047 66.1136 65.5865 65.9929 65.2219 65.7514C64.8574 65.5099 64.6265 65.1572 64.5295 64.6932L65.3249 64.4943C65.4007 64.7879 65.5439 65.008 65.7546 65.1548C65.9677 65.3016 66.2459 65.375 66.5891 65.375C66.9798 65.375 67.2899 65.2921 67.5195 65.1264C67.7515 64.9583 67.8675 64.7571 67.8675 64.5227C67.8675 64.3333 67.8013 64.1747 67.6687 64.0469C67.5361 63.9167 67.3325 63.8196 67.0579 63.7557L66.1488 63.5426C65.6493 63.4242 65.2823 63.2408 65.0479 62.9922C64.8159 62.7412 64.6999 62.4276 64.6999 62.0511C64.6999 61.7434 64.7863 61.4711 64.9592 61.2344C65.1344 60.9976 65.3723 60.8118 65.6729 60.6768C65.976 60.5419 66.3192 60.4744 66.7028 60.4744C67.2425 60.4744 67.6663 60.5928 67.9741 60.8295C68.2842 61.0663 68.5044 61.3788 68.6346 61.767ZM73.8592 61.767L73.1064 61.9801C73.059 61.8546 72.9892 61.7327 72.8968 61.6143C72.8069 61.4936 72.6838 61.3942 72.5275 61.3161C72.3713 61.2379 72.1712 61.1989 71.9274 61.1989C71.5936 61.1989 71.3154 61.2758 71.0929 61.4297C70.8727 61.5812 70.7626 61.7741 70.7626 62.0085C70.7626 62.2169 70.8384 62.3814 70.9899 62.5021C71.1414 62.6229 71.3781 62.7235 71.7001 62.804L72.5098 63.0028C72.9975 63.1212 73.3609 63.3023 73.6 63.5462C73.8391 63.7876 73.9586 64.099 73.9586 64.4801C73.9586 64.7926 73.8687 65.072 73.6887 65.3182C73.5112 65.5644 73.2626 65.7585 72.943 65.9006C72.6234 66.0426 72.2517 66.1136 71.8279 66.1136C71.2716 66.1136 70.8111 65.9929 70.4466 65.7514C70.082 65.5099 69.8511 65.1572 69.7541 64.6932L70.5495 64.4943C70.6253 64.7879 70.7685 65.008 70.9792 65.1548C71.1923 65.3016 71.4705 65.375 71.8137 65.375C72.2044 65.375 72.5145 65.2921 72.7441 65.1264C72.9761 64.9583 73.0922 64.7571 73.0922 64.5227C73.0922 64.3333 73.0259 64.1747 72.8933 64.0469C72.7607 63.9167 72.5571 63.8196 72.2825 63.7557L71.3734 63.5426C70.8739 63.4242 70.5069 63.2408 70.2725 62.9922C70.0405 62.7412 69.9245 62.4276 69.9245 62.0511C69.9245 61.7434 70.0109 61.4711 70.1838 61.2344C70.359 60.9976 70.5969 60.8118 70.8975 60.6768C71.2006 60.5419 71.5439 60.4744 71.9274 60.4744C72.4672 60.4744 72.8909 60.5928 73.1987 60.8295C73.5088 61.0663 73.729 61.3788 73.8592 61.767ZM75.831 66.0568C75.6558 66.0568 75.5054 65.9941 75.38 65.8686C75.2545 65.7431 75.1918 65.5928 75.1918 65.4176C75.1918 65.2424 75.2545 65.0921 75.38 64.9666C75.5054 64.8411 75.6558 64.7784 75.831 64.7784C76.0062 64.7784 76.1565 64.8411 76.282 64.9666C76.4074 65.0921 76.4702 65.2424 76.4702 65.4176C76.4702 65.5336 76.4406 65.6402 76.3814 65.7372C76.3246 65.8343 76.2476 65.9124 76.1506 65.9716C76.0559 66.0284 75.9493 66.0568 75.831 66.0568ZM80.19 66.1136C79.6786 66.1136 79.2383 65.9929 78.869 65.7514C78.4996 65.5099 78.2156 65.1773 78.0167 64.7536C77.8178 64.3298 77.7184 63.8456 77.7184 63.3011C77.7184 62.7472 77.8202 62.2583 78.0238 61.8345C78.2298 61.4084 78.5162 61.0758 78.8832 60.8366C79.2525 60.5952 79.6834 60.4744 80.1758 60.4744C80.5593 60.4744 80.9049 60.5455 81.2127 60.6875C81.5205 60.8295 81.7726 61.0284 81.9691 61.2841C82.1656 61.5398 82.2875 61.8381 82.3349 62.179H81.4968C81.4329 61.9304 81.2908 61.7102 81.0707 61.5185C80.8529 61.3243 80.5593 61.2273 80.19 61.2273C79.8633 61.2273 79.5768 61.3125 79.3306 61.483C79.0868 61.651 78.8962 61.889 78.7589 62.1967C78.6239 62.5021 78.5565 62.8608 78.5565 63.2727C78.5565 63.6941 78.6228 64.0611 78.7553 64.3736C78.8903 64.6861 79.0797 64.9287 79.3235 65.1016C79.5697 65.2744 79.8585 65.3608 80.19 65.3608C80.4078 65.3608 80.6055 65.3229 80.783 65.2472C80.9606 65.1714 81.1109 65.0625 81.234 64.9205C81.3571 64.7784 81.4447 64.608 81.4968 64.4091H82.3349C82.2875 64.7311 82.1703 65.0211 81.9833 65.2791C81.7987 65.5348 81.5536 65.7384 81.2482 65.8899C80.9452 66.0391 80.5924 66.1136 80.19 66.1136ZM85.7759 66.1136C85.2835 66.1136 84.8514 65.9964 84.4798 65.7621C84.1104 65.5277 83.8216 65.1998 83.6133 64.7784C83.4073 64.357 83.3043 63.8646 83.3043 63.3011C83.3043 62.733 83.4073 62.237 83.6133 61.8132C83.8216 61.3894 84.1104 61.0604 84.4798 60.826C84.8514 60.5916 85.2835 60.4744 85.7759 60.4744C86.2683 60.4744 86.6992 60.5916 87.0685 60.826C87.4402 61.0604 87.729 61.3894 87.935 61.8132C88.1433 62.237 88.2475 62.733 88.2475 63.3011C88.2475 63.8646 88.1433 64.357 87.935 64.7784C87.729 65.1998 87.4402 65.5277 87.0685 65.7621C86.6992 65.9964 86.2683 66.1136 85.7759 66.1136ZM85.7759 65.3608C86.15 65.3608 86.4577 65.2649 86.6992 65.0732C86.9407 64.8814 87.1194 64.6293 87.2354 64.3168C87.3514 64.0043 87.4094 63.6657 87.4094 63.3011C87.4094 62.9366 87.3514 62.5968 87.2354 62.282C87.1194 61.9671 86.9407 61.7126 86.6992 61.5185C86.4577 61.3243 86.15 61.2273 85.7759 61.2273C85.4019 61.2273 85.0941 61.3243 84.8526 61.5185C84.6112 61.7126 84.4324 61.9671 84.3164 62.282C84.2004 62.5968 84.1424 62.9366 84.1424 63.3011C84.1424 63.6657 84.2004 64.0043 84.3164 64.3168C84.4324 64.6293 84.6112 64.8814 84.8526 65.0732C85.0941 65.2649 85.4019 65.3608 85.7759 65.3608ZM89.5268 66V60.5455H90.3365V61.3977H90.4075C90.5211 61.1065 90.7046 60.8804 90.9579 60.7195C91.2112 60.5561 91.5154 60.4744 91.8706 60.4744C92.2304 60.4744 92.5299 60.5561 92.769 60.7195C93.0105 60.8804 93.1987 61.1065 93.3336 61.3977H93.3904C93.5301 61.116 93.7396 60.8923 94.019 60.7266C94.2984 60.5585 94.6333 60.4744 95.024 60.4744C95.5117 60.4744 95.9106 60.6271 96.2207 60.9325C96.5308 61.2356 96.6859 61.7079 96.6859 62.3494V66H95.8478V62.3494C95.8478 61.947 95.7377 61.6593 95.5176 61.4865C95.2974 61.3137 95.0382 61.2273 94.7399 61.2273C94.3564 61.2273 94.0592 61.3433 93.8485 61.5753C93.6378 61.8049 93.5325 62.0961 93.5325 62.4489V66H92.6802V62.2642C92.6802 61.9541 92.5796 61.7043 92.3784 61.5149C92.1771 61.3232 91.9179 61.2273 91.6007 61.2273C91.3829 61.2273 91.1793 61.2853 90.9899 61.4013C90.8029 61.5173 90.6513 61.6783 90.5353 61.8842C90.4217 62.0878 90.3649 62.3234 90.3649 62.5909V66H89.5268Z" fill="white"/>
<path d="M40.8075 58.8178H39.951C39.8077 58.0207 36.6712 56.9788 36.555 55.9619H5.32767C5.25697 56.8584 4.02497 57.8651 3.98969 58.8178H3.93142C2.16898 58.8178 0.738899 60.4252 0.738899 62.4089C0.738899 64.3926 2.16898 66 3.93142 66H40.8075C42.5699 66 44 64.3926 44 62.4089C44 60.4252 42.5699 58.838 40.8075 58.838V58.8178Z" fill="#5D9948"/>
<path d="M2.37187 40.3852C2.6191 40.7792 2.99757 41.0469 3.42161 41.1288C3.84351 41.2108 4.27998 41.0997 4.63118 40.8202L10.4259 36.205C11.1409 35.6347 12.1157 35.707 12.7601 36.3792C14.3376 38.0227 16.5595 38.633 18.6317 37.9935C20.2259 37.5026 21.5477 36.3185 22.3583 34.7487C22.6617 37.3799 21.5186 41.4514 14.5225 46.5751C8.04381 51.3199 3.9702 56.2506 1.7733 62.9336H35.3217C35.7082 59.0981 36.6081 54.8468 38.479 50.4139C42.3885 43.2621 46.7801 30.2562 36.5147 18.2042C27.9472 8.14635 20.3257 9.34698 16.0522 11.4067C13.9738 12.4071 12.9865 15.0596 13.768 17.4231L8.97502 12.4294C8.70707 12.1501 8.30588 12.1033 7.98996 12.3147C7.67604 12.5275 7.52422 12.9484 7.6179 13.3469L9.19953 20.1082C8.62167 20.6447 8.09166 21.2467 7.68004 21.9715L0.25381 35.0535C-0.0995343 35.6789 -0.0829623 36.482 0.297377 37.0875L2.37187 40.3852Z" fill="#5D9948"/>
</svg>
