<svg width="155" height="79" viewBox="0 0 155 79" fill="none" xmlns="http://www.w3.org/2000/svg">
<path d="M65.7188 24C65.4844 22.0208 64.5339 20.4844 62.8672 19.3906C61.2005 18.2969 59.1563 17.75 56.7344 17.75C54.9635 17.75 53.4141 18.0365 52.0859 18.6094C50.7708 19.1823 49.7422 19.9701 49 20.9727C48.2708 21.9753 47.9063 23.1146 47.9063 24.3906C47.9063 25.4583 48.1602 26.3763 48.668 27.1445C49.1888 27.8997 49.8529 28.5312 50.6602 29.0391C51.4674 29.5339 52.3138 29.944 53.1992 30.2695C54.0846 30.582 54.8984 30.8359 55.6406 31.0312L59.7031 32.125C60.7448 32.3984 61.9036 32.776 63.1797 33.2578C64.4688 33.7396 65.6992 34.3971 66.8711 35.2305C68.056 36.0508 69.0326 37.1055 69.8008 38.3945C70.569 39.6836 70.9531 41.2656 70.9531 43.1406C70.9531 45.3021 70.3867 47.2552 69.2539 49C68.1341 50.7448 66.4935 52.1315 64.332 53.1602C62.1836 54.1888 59.5729 54.7031 56.5 54.7031C53.6354 54.7031 51.1549 54.2409 49.0586 53.3164C46.9753 52.3919 45.3346 51.1029 44.1367 49.4492C42.9518 47.7956 42.2813 45.875 42.125 43.6875H47.125C47.2552 45.1979 47.763 46.4479 48.6484 47.4375C49.5469 48.4141 50.6797 49.1432 52.0469 49.625C53.4271 50.0937 54.9115 50.3281 56.5 50.3281C58.349 50.3281 60.0091 50.0286 61.4805 49.4297C62.9518 48.8177 64.1172 47.9714 64.9766 46.8906C65.8359 45.7969 66.2656 44.5208 66.2656 43.0625C66.2656 41.7344 65.8945 40.6536 65.1523 39.8203C64.4102 38.987 63.4336 38.3099 62.2227 37.7891C61.0117 37.2682 59.7031 36.8125 58.2969 36.4219L53.375 35.0156C50.25 34.1172 47.776 32.8346 45.9531 31.168C44.1302 29.5013 43.2188 27.3203 43.2188 24.625C43.2188 22.3854 43.8242 20.4323 45.0352 18.7656C46.2591 17.0859 47.8997 15.7839 49.957 14.8594C52.0273 13.9219 54.3385 13.4531 56.8906 13.4531C59.4688 13.4531 61.7604 13.9154 63.7656 14.8398C65.7708 15.7513 67.3594 17.0013 68.5312 18.5898C69.7161 20.1784 70.3411 21.9818 70.4063 24H65.7188ZM91.2607 54H78.917V14H91.8076C95.6878 14 99.0081 14.8008 101.769 16.4023C104.529 17.9909 106.645 20.276 108.116 23.2578C109.588 26.2266 110.323 29.7812 110.323 33.9219C110.323 38.0885 109.581 41.6758 108.097 44.6836C106.612 47.6784 104.451 49.9831 101.612 51.5977C98.7738 53.1992 95.3232 54 91.2607 54ZM83.7607 49.7031H90.9482C94.2555 49.7031 96.9964 49.0651 99.1709 47.7891C101.345 46.513 102.966 44.6966 104.034 42.3398C105.102 39.9831 105.636 37.1771 105.636 33.9219C105.636 30.6927 105.108 27.9128 104.054 25.582C102.999 23.2383 101.424 21.4414 99.3271 20.1914C97.2308 18.9284 94.6201 18.2969 91.4951 18.2969H83.7607V49.7031Z" fill="white"/>
<path d="M59.4659 64H57.7045C57.6004 63.4934 57.4181 63.0483 57.1577 62.6648C56.902 62.2812 56.5895 61.9593 56.2202 61.6989C55.8556 61.4337 55.4508 61.2348 55.0057 61.1023C54.5606 60.9697 54.0966 60.9034 53.6136 60.9034C52.733 60.9034 51.9351 61.1259 51.2202 61.571C50.5099 62.0161 49.9441 62.6719 49.5227 63.5384C49.1061 64.4048 48.8977 65.4678 48.8977 66.7273C48.8977 67.9867 49.1061 69.0497 49.5227 69.9162C49.9441 70.7827 50.5099 71.4384 51.2202 71.8835C51.9351 72.3286 52.733 72.5511 53.6136 72.5511C54.0966 72.5511 54.5606 72.4848 55.0057 72.3523C55.4508 72.2197 55.8556 72.0232 56.2202 71.7628C56.5895 71.4976 56.902 71.1733 57.1577 70.7898C57.4181 70.4015 57.6004 69.9564 57.7045 69.4545H59.4659C59.3333 70.1979 59.0919 70.8632 58.7415 71.4503C58.3911 72.0374 57.9555 72.5369 57.4347 72.9489C56.9138 73.3561 56.3291 73.6662 55.6804 73.8793C55.0365 74.0923 54.3475 74.1989 53.6136 74.1989C52.3731 74.1989 51.2699 73.8958 50.304 73.2898C49.3381 72.6837 48.5781 71.822 48.0241 70.7045C47.4702 69.5871 47.1932 68.2614 47.1932 66.7273C47.1932 65.1932 47.4702 63.8674 48.0241 62.75C48.5781 61.6326 49.3381 60.7708 50.304 60.1648C51.2699 59.5587 52.3731 59.2557 53.6136 59.2557C54.3475 59.2557 55.0365 59.3622 55.6804 59.5753C56.3291 59.7884 56.9138 60.1009 57.4347 60.5128C57.9555 60.92 58.3911 61.4171 58.7415 62.0043C59.0919 62.5866 59.3333 63.2519 59.4659 64ZM63.761 67.4375V74H62.0849V59.4545H63.761V64.7955H63.9031C64.1587 64.232 64.5423 63.7846 65.0536 63.4531C65.5697 63.117 66.2563 62.9489 67.1133 62.9489C67.8567 62.9489 68.5077 63.098 69.0664 63.3963C69.6251 63.6899 70.0584 64.142 70.3661 64.7528C70.6786 65.3589 70.8349 66.1307 70.8349 67.0682V74H69.1587V67.1818C69.1587 66.3153 68.9338 65.6454 68.484 65.1719C68.0389 64.6937 67.421 64.4545 66.6303 64.4545C66.0811 64.4545 65.5887 64.5705 65.1531 64.8026C64.7222 65.0346 64.3813 65.3731 64.1303 65.8182C63.8841 66.2633 63.761 66.803 63.761 67.4375ZM78.4751 74.2273C77.424 74.2273 76.5173 73.9953 75.755 73.5312C74.9974 73.0625 74.4126 72.4091 74.0007 71.571C73.5935 70.7282 73.3899 69.7481 73.3899 68.6307C73.3899 67.5133 73.5935 66.5284 74.0007 65.6761C74.4126 64.8191 74.9856 64.1515 75.7195 63.6733C76.4581 63.1903 77.3198 62.9489 78.3047 62.9489C78.8729 62.9489 79.4339 63.0436 79.9879 63.233C80.5419 63.4223 81.0462 63.7301 81.5007 64.1562C81.9553 64.5777 82.3175 65.1364 82.5874 65.8324C82.8572 66.5284 82.9922 67.3854 82.9922 68.4034V69.1136H74.5831V67.6648H81.2876C81.2876 67.0492 81.1645 66.5 80.9183 66.017C80.6768 65.5341 80.3312 65.1529 79.8814 64.8736C79.4363 64.5942 78.9107 64.4545 78.3047 64.4545C77.6371 64.4545 77.0594 64.6203 76.5717 64.9517C76.0888 65.2784 75.7171 65.7045 75.4567 66.2301C75.1963 66.7557 75.0661 67.3191 75.0661 67.9205V68.8864C75.0661 69.7102 75.2081 70.4086 75.4922 70.9815C75.781 71.5497 76.1811 71.983 76.6925 72.2812C77.2038 72.5748 77.7981 72.7216 78.4751 72.7216C78.9155 72.7216 79.3132 72.66 79.6683 72.5369C80.0282 72.4091 80.3383 72.2197 80.5987 71.9688C80.8591 71.7131 81.0604 71.3958 81.2024 71.017L82.8217 71.4716C82.6513 72.0208 82.3648 72.5038 81.9624 72.9205C81.5599 73.3324 81.0627 73.6544 80.4709 73.8864C79.879 74.1136 79.2138 74.2273 78.4751 74.2273ZM93.2692 65.5341L91.7635 65.9602C91.6688 65.7093 91.5291 65.4654 91.3445 65.2287C91.1645 64.9872 90.9183 64.7884 90.6058 64.6321C90.2933 64.4759 89.8932 64.3977 89.4055 64.3977C88.7379 64.3977 88.1816 64.5516 87.7365 64.8594C87.2962 65.1624 87.076 65.5483 87.076 66.017C87.076 66.4337 87.2275 66.7628 87.5305 67.0043C87.8336 67.2457 88.3071 67.447 88.951 67.608L90.5703 68.0057C91.5457 68.2424 92.2725 68.6046 92.7507 69.0923C93.2289 69.5753 93.468 70.1979 93.468 70.9602C93.468 71.5852 93.2881 72.1439 92.9283 72.6364C92.5732 73.1288 92.076 73.517 91.4368 73.8011C90.7976 74.0852 90.0542 74.2273 89.2067 74.2273C88.094 74.2273 87.1731 73.9858 86.4439 73.5028C85.7147 73.0199 85.2531 72.3144 85.0589 71.3864L86.6499 70.9886C86.8014 71.5758 87.0878 72.0161 87.5092 72.3097C87.9354 72.6032 88.4917 72.75 89.1783 72.75C89.9595 72.75 90.5798 72.5843 91.0391 72.2528C91.5031 71.9167 91.7351 71.5142 91.7351 71.0455C91.7351 70.6667 91.6025 70.3494 91.3374 70.0938C91.0722 69.8333 90.665 69.6392 90.1158 69.5114L88.2976 69.0852C87.2985 68.8485 86.5646 68.4815 86.0959 67.9844C85.6319 67.4825 85.3999 66.8551 85.3999 66.1023C85.3999 65.4867 85.5727 64.9422 85.9183 64.4688C86.2687 63.9953 86.7446 63.6236 87.3459 63.3537C87.9519 63.0838 88.6385 62.9489 89.4055 62.9489C90.4851 62.9489 91.3326 63.1856 91.9482 63.6591C92.5684 64.1326 93.0088 64.7576 93.2692 65.5341ZM103.718 65.5341L102.213 65.9602C102.118 65.7093 101.978 65.4654 101.794 65.2287C101.614 64.9872 101.368 64.7884 101.055 64.6321C100.743 64.4759 100.342 64.3977 99.8548 64.3977C99.1871 64.3977 98.6308 64.5516 98.1857 64.8594C97.7454 65.1624 97.5252 65.5483 97.5252 66.017C97.5252 66.4337 97.6767 66.7628 97.9798 67.0043C98.2828 67.2457 98.7563 67.447 99.4002 67.608L101.02 68.0057C101.995 68.2424 102.722 68.6046 103.2 69.0923C103.678 69.5753 103.917 70.1979 103.917 70.9602C103.917 71.5852 103.737 72.1439 103.377 72.6364C103.022 73.1288 102.525 73.517 101.886 73.8011C101.247 74.0852 100.503 74.2273 99.6559 74.2273C98.5432 74.2273 97.6223 73.9858 96.8931 73.5028C96.1639 73.0199 95.7023 72.3144 95.5082 71.3864L97.0991 70.9886C97.2506 71.5758 97.5371 72.0161 97.9585 72.3097C98.3846 72.6032 98.9409 72.75 99.6275 72.75C100.409 72.75 101.029 72.5843 101.488 72.2528C101.952 71.9167 102.184 71.5142 102.184 71.0455C102.184 70.6667 102.052 70.3494 101.787 70.0938C101.521 69.8333 101.114 69.6392 100.565 69.5114L98.7468 69.0852C97.7478 68.8485 97.0138 68.4815 96.5451 67.9844C96.0811 67.4825 95.8491 66.8551 95.8491 66.1023C95.8491 65.4867 96.0219 64.9422 96.3675 64.4688C96.7179 63.9953 97.1938 63.6236 97.7951 63.3537C98.4012 63.0838 99.0877 62.9489 99.8548 62.9489C100.934 62.9489 101.782 63.1856 102.397 63.6591C103.018 64.1326 103.458 64.7576 103.718 65.5341ZM107.662 74.1136C107.312 74.1136 107.011 73.9882 106.76 73.7372C106.509 73.4863 106.384 73.1856 106.384 72.8352C106.384 72.4848 106.509 72.1842 106.76 71.9332C107.011 71.6823 107.312 71.5568 107.662 71.5568C108.012 71.5568 108.313 71.6823 108.564 71.9332C108.815 72.1842 108.94 72.4848 108.94 72.8352C108.94 73.0672 108.881 73.2803 108.763 73.4744C108.649 73.6686 108.495 73.8248 108.301 73.9432C108.112 74.0568 107.899 74.1136 107.662 74.1136ZM116.38 74.2273C115.357 74.2273 114.477 73.9858 113.738 73.5028C112.999 73.0199 112.431 72.3546 112.033 71.5071C111.636 70.6596 111.437 69.6913 111.437 68.6023C111.437 67.4943 111.64 66.5166 112.048 65.669C112.46 64.8168 113.032 64.1515 113.766 63.6733C114.505 63.1903 115.367 62.9489 116.352 62.9489C117.119 62.9489 117.81 63.0909 118.425 63.375C119.041 63.6591 119.545 64.0568 119.938 64.5682C120.331 65.0795 120.575 65.6761 120.67 66.358H118.994C118.866 65.8608 118.582 65.4205 118.141 65.0369C117.706 64.6487 117.119 64.4545 116.38 64.4545C115.727 64.4545 115.154 64.625 114.661 64.9659C114.174 65.3021 113.792 65.7779 113.518 66.3935C113.248 67.0043 113.113 67.7216 113.113 68.5455C113.113 69.3883 113.246 70.1222 113.511 70.7472C113.781 71.3722 114.159 71.8575 114.647 72.2031C115.139 72.5488 115.717 72.7216 116.38 72.7216C116.816 72.7216 117.211 72.6458 117.566 72.4943C117.921 72.3428 118.222 72.125 118.468 71.8409C118.714 71.5568 118.889 71.2159 118.994 70.8182H120.67C120.575 71.4621 120.341 72.0421 119.967 72.5582C119.597 73.0696 119.107 73.4768 118.496 73.7798C117.89 74.0781 117.185 74.2273 116.38 74.2273ZM127.552 74.2273C126.567 74.2273 125.703 73.9929 124.96 73.5241C124.221 73.0554 123.643 72.3996 123.227 71.5568C122.815 70.714 122.609 69.7292 122.609 68.6023C122.609 67.4659 122.815 66.474 123.227 65.6264C123.643 64.7789 124.221 64.1207 124.96 63.652C125.703 63.1832 126.567 62.9489 127.552 62.9489C128.537 62.9489 129.398 63.1832 130.137 63.652C130.88 64.1207 131.458 64.7789 131.87 65.6264C132.287 66.474 132.495 67.4659 132.495 68.6023C132.495 69.7292 132.287 70.714 131.87 71.5568C131.458 72.3996 130.88 73.0554 130.137 73.5241C129.398 73.9929 128.537 74.2273 127.552 74.2273ZM127.552 72.7216C128.3 72.7216 128.915 72.5298 129.398 72.1463C129.881 71.7628 130.239 71.2585 130.471 70.6335C130.703 70.0085 130.819 69.3314 130.819 68.6023C130.819 67.8731 130.703 67.1937 130.471 66.5639C130.239 65.9342 129.881 65.4252 129.398 65.0369C128.915 64.6487 128.3 64.4545 127.552 64.4545C126.804 64.4545 126.188 64.6487 125.705 65.0369C125.222 65.4252 124.865 65.9342 124.633 66.5639C124.401 67.1937 124.285 67.8731 124.285 68.6023C124.285 69.3314 124.401 70.0085 124.633 70.6335C124.865 71.2585 125.222 71.7628 125.705 72.1463C126.188 72.5298 126.804 72.7216 127.552 72.7216ZM135.054 74V63.0909H136.673V64.7955H136.815C137.042 64.2131 137.409 63.7609 137.916 63.4389C138.422 63.1122 139.031 62.9489 139.741 62.9489C140.461 62.9489 141.06 63.1122 141.538 63.4389C142.021 63.7609 142.397 64.2131 142.667 64.7955H142.781C143.06 64.232 143.479 63.7846 144.038 63.4531C144.597 63.117 145.267 62.9489 146.048 62.9489C147.023 62.9489 147.821 63.2543 148.441 63.8651C149.062 64.4711 149.372 65.4157 149.372 66.6989V74H147.696V66.6989C147.696 65.8939 147.475 65.3187 147.035 64.973C146.595 64.6274 146.076 64.4545 145.48 64.4545C144.713 64.4545 144.118 64.6866 143.697 65.1506C143.276 65.6098 143.065 66.1922 143.065 66.8977V74H141.36V66.5284C141.36 65.9081 141.159 65.4086 140.757 65.0298C140.354 64.6463 139.836 64.4545 139.201 64.4545C138.766 64.4545 138.359 64.5705 137.98 64.8026C137.606 65.0346 137.303 65.3565 137.071 65.7685C136.843 66.1757 136.73 66.6468 136.73 67.1818V74H135.054Z" fill="white"/>
<path d="M0 67.5C0 63.9101 2.91015 61 6.5 61H34.5C38.0898 61 41 63.9101 41 67.5V67.5C41 71.0899 38.0899 74 34.5 74H6.5C2.91015 74 0 71.0899 0 67.5V67.5Z" fill="#D9D9D9"/>
<path d="M9 33.5C9 32.1193 10.1193 31 11.5 31H30.5C31.8807 31 33 32.1193 33 33.5V33.5C33 34.8807 31.8807 36 30.5 36H11.5C10.1193 36 9 34.8807 9 33.5V33.5Z" fill="#D9D9D9"/>
<path d="M15.5 36H26L31 61H9L15.5 36Z" fill="#D9D9D9"/>
<path d="M32 23.5C32 29.299 27.0751 34 21 34C14.9249 34 10 29.299 10 23.5C10 17.701 14.9249 13 21 13C27.0751 13 32 17.701 32 23.5Z" fill="#D9D9D9"/>
</svg>
