<svg width="271" height="66" viewBox="0 0 271 66" fill="none" xmlns="http://www.w3.org/2000/svg">
<path d="M54.136 56.576C52.408 56.576 50.712 56.368 49.048 55.952C47.416 55.536 46.072 55.104 45.016 54.656L45.832 51.2C46.888 51.616 48.152 52.016 49.624 52.4C51.128 52.752 52.584 52.928 53.992 52.928C55.496 52.928 56.808 52.688 57.928 52.208C59.08 51.696 59.992 50.976 60.664 50.048C61.336 49.12 61.672 48.016 61.672 46.736C61.672 45.456 61.288 44.4 60.52 43.568C59.784 42.736 58.824 42.016 57.64 41.408C56.456 40.8 55.208 40.208 53.896 39.632C52.84 39.152 51.8 38.64 50.776 38.096C49.784 37.552 48.872 36.912 48.04 36.176C47.208 35.44 46.536 34.576 46.024 33.584C45.544 32.56 45.304 31.36 45.304 29.984C45.304 27.936 45.816 26.208 46.84 24.8C47.896 23.392 49.288 22.32 51.016 21.584C52.744 20.848 54.648 20.48 56.728 20.48C58.296 20.48 59.752 20.656 61.096 21.008C62.472 21.36 63.608 21.728 64.504 22.112L63.784 25.568C63.016 25.248 62.008 24.928 60.76 24.608C59.512 24.288 58.216 24.128 56.872 24.128C54.696 24.128 52.952 24.656 51.64 25.712C50.36 26.736 49.72 28.096 49.72 29.792C49.72 31.008 50.072 32.016 50.776 32.816C51.512 33.616 52.456 34.32 53.608 34.928C54.76 35.504 55.976 36.08 57.256 36.656C58.312 37.136 59.352 37.648 60.376 38.192C61.432 38.736 62.392 39.376 63.256 40.112C64.12 40.848 64.792 41.744 65.272 42.8C65.784 43.824 66.04 45.04 66.04 46.448C66.04 48.464 65.544 50.24 64.552 51.776C63.592 53.28 62.216 54.464 60.424 55.328C58.632 56.16 56.536 56.576 54.136 56.576ZM79.3079 56.144C77.8039 56.144 76.4439 56.112 75.2279 56.048C74.0119 56.016 72.8119 55.984 71.6279 55.952V21.296C73.0679 21.136 74.5719 21.04 76.1399 21.008C77.7079 20.944 79.1799 20.912 80.5559 20.912C84.5879 20.912 87.9479 21.6 90.6359 22.976C93.3239 24.352 95.3239 26.32 96.6359 28.88C97.9799 31.408 98.6519 34.432 98.6519 37.952C98.6519 41.856 97.9319 45.168 96.4919 47.888C95.0519 50.576 92.8919 52.624 90.0119 54.032C87.1319 55.44 83.5639 56.144 79.3079 56.144ZM79.9799 52.592C83.0199 52.592 85.5799 52.064 87.6599 51.008C89.7719 49.92 91.3719 48.288 92.4599 46.112C93.5479 43.936 94.0919 41.248 94.0919 38.048C94.0919 35.232 93.5959 32.816 92.6039 30.8C91.6439 28.752 90.1719 27.184 88.1879 26.096C86.2039 24.976 83.7079 24.416 80.6999 24.416C79.9639 24.416 79.1639 24.432 78.2999 24.464C77.4679 24.496 76.6839 24.56 75.9479 24.656V52.544C76.5559 52.576 77.1639 52.592 77.7719 52.592C78.3799 52.592 79.1159 52.592 79.9799 52.592Z" fill="white"/>
<path d="M121.192 53.384C119.379 53.384 117.779 53.0853 116.392 52.488C115.005 51.8693 113.853 51.016 112.936 49.928C112.04 48.84 111.368 47.5813 110.92 46.152C110.472 44.7227 110.248 43.176 110.248 41.512C110.248 39.144 110.685 37.0427 111.56 35.208C112.435 33.352 113.704 31.912 115.368 30.888C117.032 29.8427 119.027 29.32 121.352 29.32C122.525 29.32 123.603 29.4267 124.584 29.64C125.587 29.8533 126.376 30.0987 126.952 30.376L126.568 32.712C125.907 32.456 125.139 32.232 124.264 32.04C123.389 31.848 122.472 31.752 121.512 31.752C119.784 31.752 118.301 32.1573 117.064 32.968C115.827 33.7573 114.877 34.8773 114.216 36.328C113.576 37.7787 113.256 39.4747 113.256 41.416C113.256 43.2933 113.565 44.9467 114.184 46.376C114.824 47.8053 115.763 48.9253 117 49.736C118.237 50.5467 119.752 50.952 121.544 50.952C122.44 50.952 123.325 50.8667 124.2 50.696C125.096 50.504 125.896 50.2587 126.6 49.96L126.92 52.296C126.195 52.6373 125.331 52.904 124.328 53.096C123.325 53.288 122.28 53.384 121.192 53.384ZM130.271 29.064L133.151 28.968V38.728H133.215C133.663 38.28 134.154 37.8533 134.687 37.448C135.242 37.0213 135.861 36.68 136.543 36.424C137.226 36.1467 137.973 36.008 138.783 36.008C139.487 36.008 140.159 36.136 140.799 36.392C141.461 36.648 142.037 37.0427 142.527 37.576C143.039 38.1093 143.434 38.8133 143.711 39.688C144.01 40.5413 144.159 41.576 144.159 42.792V53H141.279V42.92C141.279 42.0667 141.173 41.352 140.959 40.776C140.767 40.1787 140.501 39.7093 140.159 39.368C139.818 39.0053 139.434 38.7493 139.007 38.6C138.581 38.4293 138.143 38.344 137.695 38.344C137.034 38.344 136.415 38.472 135.839 38.728C135.263 38.984 134.751 39.304 134.303 39.688C133.877 40.0507 133.493 40.4027 133.151 40.744V53H130.303L130.271 29.064ZM155.751 53.352C153.938 53.352 152.423 52.9893 151.207 52.264C150.012 51.5173 149.116 50.504 148.519 49.224C147.922 47.9227 147.623 46.4293 147.623 44.744C147.623 43.5067 147.794 42.3653 148.135 41.32C148.476 40.2747 148.967 39.3573 149.607 38.568C150.268 37.7573 151.068 37.128 152.007 36.68C152.946 36.232 154.023 36.008 155.239 36.008C156.498 36.008 157.564 36.2427 158.439 36.712C159.314 37.16 160.007 37.8 160.519 38.632C161.031 39.4427 161.372 40.4027 161.543 41.512C161.735 42.6213 161.756 43.8373 161.607 45.16H149.223L150.663 44.072C150.428 45.4587 150.471 46.6853 150.791 47.752C151.132 48.7973 151.74 49.6293 152.615 50.248C153.511 50.8453 154.674 51.144 156.103 51.144C157.02 51.144 157.874 51.048 158.663 50.856C159.474 50.664 160.135 50.472 160.647 50.28L160.999 52.296C160.359 52.5733 159.57 52.8187 158.631 53.032C157.692 53.2453 156.732 53.352 155.751 53.352ZM149.255 43.496H159.079C159.1 43.3893 159.111 43.2933 159.111 43.208C159.111 43.1227 159.111 43.048 159.111 42.984C159.111 41.9813 158.962 41.1173 158.663 40.392C158.364 39.6453 157.927 39.0693 157.351 38.664C156.775 38.2587 156.039 38.056 155.143 38.056C154.098 38.056 153.212 38.3547 152.487 38.952C151.783 39.528 151.26 40.296 150.919 41.256C150.578 42.216 150.439 43.2293 150.503 44.296L149.255 43.496ZM169.08 53.352C168.248 53.352 167.395 53.256 166.52 53.064C165.667 52.872 164.92 52.616 164.28 52.296L164.696 50.312C165.059 50.4613 165.485 50.6107 165.976 50.76C166.467 50.888 166.979 50.9947 167.512 51.08C168.067 51.1653 168.611 51.208 169.144 51.208C170.253 51.208 171.107 50.9733 171.704 50.504C172.323 50.0347 172.632 49.416 172.632 48.648C172.632 48.0507 172.451 47.5707 172.088 47.208C171.725 46.824 171.256 46.4933 170.68 46.216C170.125 45.9173 169.528 45.64 168.888 45.384C168.205 45.0853 167.533 44.7547 166.872 44.392C166.211 44.008 165.656 43.5173 165.208 42.92C164.781 42.3227 164.568 41.576 164.568 40.68C164.568 39.7413 164.803 38.9307 165.272 38.248C165.763 37.544 166.445 37 167.32 36.616C168.195 36.2107 169.219 36.008 170.392 36.008C171.203 36.008 171.992 36.104 172.76 36.296C173.528 36.4667 174.189 36.6907 174.744 36.968L174.328 38.952C174.029 38.824 173.656 38.696 173.208 38.568C172.781 38.44 172.333 38.3333 171.864 38.248C171.395 38.1627 170.915 38.12 170.424 38.12C169.421 38.12 168.653 38.344 168.12 38.792C167.608 39.24 167.352 39.7947 167.352 40.456C167.352 40.9893 167.501 41.4373 167.8 41.8C168.12 42.1413 168.536 42.44 169.048 42.696C169.581 42.952 170.147 43.208 170.744 43.464C171.448 43.7413 172.163 44.0827 172.888 44.488C173.613 44.8933 174.211 45.4053 174.68 46.024C175.171 46.6427 175.416 47.4427 175.416 48.424C175.416 49.4053 175.149 50.2693 174.616 51.016C174.083 51.7627 173.336 52.3387 172.376 52.744C171.437 53.1493 170.339 53.352 169.08 53.352ZM182.799 53.352C181.967 53.352 181.113 53.256 180.239 53.064C179.385 52.872 178.639 52.616 177.999 52.296L178.415 50.312C178.777 50.4613 179.204 50.6107 179.695 50.76C180.185 50.888 180.697 50.9947 181.231 51.08C181.785 51.1653 182.329 51.208 182.863 51.208C183.972 51.208 184.825 50.9733 185.423 50.504C186.041 50.0347 186.351 49.416 186.351 48.648C186.351 48.0507 186.169 47.5707 185.807 47.208C185.444 46.824 184.975 46.4933 184.399 46.216C183.844 45.9173 183.247 45.64 182.607 45.384C181.924 45.0853 181.252 44.7547 180.591 44.392C179.929 44.008 179.375 43.5173 178.927 42.92C178.5 42.3227 178.287 41.576 178.287 40.68C178.287 39.7413 178.521 38.9307 178.991 38.248C179.481 37.544 180.164 37 181.039 36.616C181.913 36.2107 182.937 36.008 184.111 36.008C184.921 36.008 185.711 36.104 186.479 36.296C187.247 36.4667 187.908 36.6907 188.463 36.968L188.047 38.952C187.748 38.824 187.375 38.696 186.927 38.568C186.5 38.44 186.052 38.3333 185.583 38.248C185.113 38.1627 184.633 38.12 184.143 38.12C183.14 38.12 182.372 38.344 181.839 38.792C181.327 39.24 181.071 39.7947 181.071 40.456C181.071 40.9893 181.22 41.4373 181.519 41.8C181.839 42.1413 182.255 42.44 182.767 42.696C183.3 42.952 183.865 43.208 184.463 43.464C185.167 43.7413 185.881 44.0827 186.607 44.488C187.332 44.8933 187.929 45.4053 188.399 46.024C188.889 46.6427 189.135 47.4427 189.135 48.424C189.135 49.4053 188.868 50.2693 188.335 51.016C187.801 51.7627 187.055 52.3387 186.095 52.744C185.156 53.1493 184.057 53.352 182.799 53.352ZM194.278 53.32C193.723 53.32 193.243 53.128 192.838 52.744C192.432 52.3387 192.23 51.8373 192.23 51.24C192.23 50.6427 192.432 50.152 192.838 49.768C193.243 49.3627 193.723 49.16 194.278 49.16C194.832 49.16 195.312 49.3627 195.718 49.768C196.123 50.152 196.326 50.6427 196.326 51.24C196.326 51.8373 196.123 52.3387 195.718 52.744C195.312 53.128 194.832 53.32 194.278 53.32ZM207.16 53.352C205.474 53.352 204.013 53.0107 202.776 52.328C201.56 51.624 200.61 50.632 199.928 49.352C199.266 48.0507 198.936 46.504 198.936 44.712C198.936 42.984 199.266 41.4693 199.928 40.168C200.61 38.8667 201.57 37.8533 202.808 37.128C204.066 36.4027 205.581 36.04 207.352 36.04C208.098 36.04 208.877 36.1147 209.688 36.264C210.498 36.4133 211.224 36.6373 211.864 36.936L211.512 39.08C211 38.8453 210.381 38.6533 209.656 38.504C208.952 38.3547 208.226 38.28 207.48 38.28C206.264 38.28 205.229 38.5573 204.376 39.112C203.544 39.6453 202.914 40.392 202.488 41.352C202.061 42.312 201.848 43.4107 201.848 44.648C201.848 45.9707 202.082 47.112 202.552 48.072C203.042 49.032 203.725 49.768 204.6 50.28C205.474 50.792 206.498 51.048 207.672 51.048C208.525 51.048 209.314 50.9627 210.04 50.792C210.786 50.6 211.373 50.4293 211.8 50.28L212.088 52.392C211.554 52.6267 210.818 52.84 209.88 53.032C208.962 53.2453 208.056 53.352 207.16 53.352ZM222.089 53.352C221.022 53.352 220.009 53.1707 219.049 52.808C218.089 52.424 217.246 51.8693 216.521 51.144C215.817 50.4187 215.262 49.512 214.857 48.424C214.451 47.336 214.249 46.088 214.249 44.68C214.249 43.272 214.451 42.024 214.857 40.936C215.262 39.848 215.817 38.9413 216.521 38.216C217.246 37.4907 218.089 36.9467 219.049 36.584C220.009 36.2 221.022 36.008 222.089 36.008C223.177 36.008 224.19 36.2 225.129 36.584C226.089 36.9467 226.931 37.4907 227.657 38.216C228.382 38.9413 228.947 39.848 229.353 40.936C229.758 42.024 229.961 43.272 229.961 44.68C229.961 46.088 229.758 47.336 229.353 48.424C228.947 49.512 228.382 50.4187 227.657 51.144C226.931 51.8693 226.089 52.424 225.129 52.808C224.19 53.1707 223.177 53.352 222.089 53.352ZM222.089 51.176C222.921 51.176 223.646 51.016 224.265 50.696C224.905 50.376 225.417 49.9173 225.801 49.32C226.206 48.7227 226.505 48.0293 226.697 47.24C226.91 46.4507 227.017 45.5973 227.017 44.68C227.017 43.7627 226.91 42.9093 226.697 42.12C226.505 41.3307 226.206 40.6373 225.801 40.04C225.417 39.4427 224.905 38.984 224.265 38.664C223.646 38.344 222.921 38.184 222.089 38.184C221.257 38.184 220.531 38.344 219.913 38.664C219.294 38.984 218.782 39.4427 218.377 40.04C217.971 40.6373 217.673 41.3307 217.481 42.12C217.289 42.9093 217.193 43.7627 217.193 44.68C217.193 45.5973 217.289 46.4507 217.481 47.24C217.673 48.0293 217.971 48.7227 218.377 49.32C218.782 49.9173 219.294 50.376 219.913 50.696C220.531 51.016 221.257 51.176 222.089 51.176ZM233.396 40.776C233.396 39.9653 233.385 39.2187 233.364 38.536C233.364 37.832 233.353 37.1067 233.332 36.36L235.828 36.264L235.988 38.76H236.116C236.5 38.3547 236.958 37.9387 237.492 37.512C238.025 37.0853 238.633 36.7333 239.316 36.456C239.998 36.1573 240.756 36.008 241.588 36.008C242.526 36.008 243.39 36.232 244.18 36.68C244.99 37.128 245.588 37.864 245.972 38.888H246.036C246.484 38.44 246.985 38.0027 247.54 37.576C248.116 37.128 248.756 36.7547 249.46 36.456C250.164 36.1573 250.932 36.008 251.764 36.008C252.51 36.008 253.193 36.136 253.812 36.392C254.43 36.648 254.974 37.032 255.444 37.544C255.934 38.056 256.308 38.7387 256.564 39.592C256.841 40.424 256.98 41.4267 256.98 42.6V53H254.132V43.048C254.132 41.896 253.982 40.9787 253.684 40.296C253.385 39.6133 252.99 39.1227 252.5 38.824C252.009 38.504 251.433 38.344 250.772 38.344C250.11 38.344 249.492 38.4827 248.916 38.76C248.361 39.0373 247.86 39.3787 247.412 39.784C246.964 40.168 246.59 40.552 246.292 40.936L246.452 40.104C246.516 40.5947 246.558 41.0533 246.58 41.48C246.601 41.8853 246.612 42.3547 246.612 42.888V53H243.796V42.952C243.796 42.0987 243.689 41.3307 243.476 40.648C243.262 39.944 242.921 39.3893 242.452 38.984C242.004 38.5573 241.385 38.344 240.595 38.344C239.955 38.344 239.358 38.472 238.804 38.728C238.27 38.984 237.78 39.2933 237.332 39.656C236.905 40.0187 236.542 40.3813 236.244 40.744V53H233.396V40.776Z" fill="white"/>
<path d="M40.8075 58.8178H39.951C39.8077 58.0207 36.6712 56.9788 36.555 55.9619H5.32767C5.25697 56.8584 4.02497 57.8651 3.98969 58.8178H3.93142C2.16898 58.8178 0.738899 60.4252 0.738899 62.4089C0.738899 64.3926 2.16898 66 3.93142 66H40.8075C42.5699 66 44 64.3926 44 62.4089C44 60.4252 42.5699 58.838 40.8075 58.838V58.8178Z" fill="#5D9948"/>
<path d="M2.37187 40.3852C2.6191 40.7792 2.99757 41.0469 3.42161 41.1288C3.84351 41.2108 4.27998 41.0997 4.63119 40.8202L10.4259 36.205C11.1409 35.6347 12.1157 35.707 12.7601 36.3792C14.3376 38.0227 16.5595 38.633 18.6317 37.9935C20.2259 37.5026 21.5477 36.3185 22.3583 34.7487C22.6617 37.3799 21.5186 41.4514 14.5225 46.5751C8.04381 51.3199 3.9702 56.2506 1.7733 62.9336H35.3217C35.7082 59.0981 36.6081 54.8468 38.479 50.4139C42.3885 43.2621 46.7801 30.2562 36.5147 18.2042C27.9472 8.14635 20.3257 9.34698 16.0522 11.4067C13.9738 12.4071 12.9865 15.0596 13.768 17.4231L8.97502 12.4294C8.70707 12.1501 8.30588 12.1033 7.98996 12.3147C7.67604 12.5275 7.52422 12.9484 7.6179 13.3469L9.19953 20.1082C8.62167 20.6447 8.09166 21.2467 7.68004 21.9715L0.25381 35.0535C-0.0995343 35.6789 -0.0829623 36.482 0.297377 37.0875L2.37187 40.3852Z" fill="#5D9948"/>
</svg>
