<svg width="41" height="61" viewBox="0 0 41 61" fill="none" xmlns="http://www.w3.org/2000/svg">
<path d="M0 54.5C0 50.9101 2.91015 48 6.5 48H34.5C38.0898 48 41 50.9101 41 54.5V54.5C41 58.0899 38.0899 61 34.5 61H6.5C2.91015 61 0 58.0899 0 54.5V54.5Z" fill="white"/>
<path d="M9 20.5C9 19.1193 10.1193 18 11.5 18H30.5C31.8807 18 33 19.1193 33 20.5V20.5C33 21.8807 31.8807 23 30.5 23H11.5C10.1193 23 9 21.8807 9 20.5V20.5Z" fill="white"/>
<path d="M15.5 23H26L31 48H9L15.5 23Z" fill="white"/>
<path d="M32 10.5C32 16.299 27.0751 21 21 21C14.9249 21 10 16.299 10 10.5C10 4.70101 14.9249 0 21 0C27.0751 0 32 4.70101 32 10.5Z" fill="white"/>
</svg>
