<svg width="722" height="683" viewBox="0 0 722 683" fill="none" xmlns="http://www.w3.org/2000/svg">
<path d="M668.33 137.335L350.33 455.333C318.663 487 224.662 501.667 203.662 480.667C182.662 459.667 196.996 365.667 228.662 334L546.997 15.6673C554.847 7.10268 564.35 0.218007 574.937 -4.57199C585.52 -9.36199 596.967 -11.9587 608.583 -12.2033C620.197 -12.4477 631.743 -10.3363 642.52 -5.99599C653.297 -1.65565 663.083 4.82434 671.287 13.051C679.49 21.2777 685.943 31.081 690.253 41.8697C694.563 52.6587 696.647 64.2087 696.37 75.8237C696.093 87.4387 693.463 98.8783 688.647 109.45C683.827 120.022 676.917 129.508 668.33 137.335Z" stroke="#C5C5C5" stroke-width="50" stroke-linecap="round" stroke-linejoin="round"/>
<path d="M325.667 57.3333H159C123.638 57.3333 89.726 71.3807 64.721 96.3857C39.7163 121.391 25.6667 155.304 25.6667 190.667V524C25.6667 559.363 39.7163 593.277 64.721 618.28C89.726 643.287 123.638 657.333 159 657.333H525.667C599.333 657.333 625.667 597.333 625.667 524V357.333" stroke="#C5C5C5" stroke-width="50" stroke-linecap="round" stroke-linejoin="round"/>
</svg>
