<svg width="54" height="37" viewBox="0 0 54 37" fill="none" xmlns="http://www.w3.org/2000/svg">
<path d="M9.136 36.576C7.408 36.576 5.712 36.368 4.048 35.952C2.416 35.536 1.072 35.104 0.0160002 34.656L0.832 31.2C1.888 31.616 3.152 32.016 4.624 32.4C6.128 32.752 7.584 32.928 8.992 32.928C10.496 32.928 11.808 32.688 12.928 32.208C14.08 31.696 14.992 30.976 15.664 30.048C16.336 29.12 16.672 28.016 16.672 26.736C16.672 25.456 16.288 24.4 15.52 23.568C14.784 22.736 13.824 22.016 12.64 21.408C11.456 20.8 10.208 20.208 8.896 19.632C7.84 19.152 6.8 18.64 5.776 18.096C4.784 17.552 3.872 16.912 3.04 16.176C2.208 15.44 1.536 14.576 1.024 13.584C0.544 12.56 0.304 11.36 0.304 9.984C0.304 7.936 0.816 6.208 1.84 4.8C2.896 3.392 4.288 2.32 6.016 1.584C7.744 0.848 9.648 0.48 11.728 0.48C13.296 0.48 14.752 0.655999 16.096 1.008C17.472 1.36 18.608 1.728 19.504 2.112L18.784 5.568C18.016 5.248 17.008 4.928 15.76 4.608C14.512 4.288 13.216 4.128 11.872 4.128C9.696 4.128 7.952 4.656 6.64 5.712C5.36 6.736 4.72 8.096 4.72 9.792C4.72 11.008 5.072 12.016 5.776 12.816C6.512 13.616 7.456 14.32 8.608 14.928C9.76 15.504 10.976 16.08 12.256 16.656C13.312 17.136 14.352 17.648 15.376 18.192C16.432 18.736 17.392 19.376 18.256 20.112C19.12 20.848 19.792 21.744 20.272 22.8C20.784 23.824 21.04 25.04 21.04 26.448C21.04 28.464 20.544 30.24 19.552 31.776C18.592 33.28 17.216 34.464 15.424 35.328C13.632 36.16 11.536 36.576 9.136 36.576ZM34.3079 36.144C32.8039 36.144 31.4439 36.112 30.2279 36.048C29.0119 36.016 27.8119 35.984 26.6279 35.952V1.296C28.0679 1.136 29.5719 1.04 31.1399 1.008C32.7079 0.943999 34.1799 0.912 35.5559 0.912C39.5879 0.912 42.9479 1.6 45.6359 2.976C48.3239 4.352 50.3239 6.32 51.6359 8.88C52.9799 11.408 53.6519 14.432 53.6519 17.952C53.6519 21.856 52.9319 25.168 51.4919 27.888C50.0519 30.576 47.8919 32.624 45.0119 34.032C42.1319 35.44 38.5639 36.144 34.3079 36.144ZM34.9799 32.592C38.0199 32.592 40.5799 32.064 42.6599 31.008C44.7719 29.92 46.3719 28.288 47.4599 26.112C48.5479 23.936 49.0919 21.248 49.0919 18.048C49.0919 15.232 48.5959 12.816 47.6039 10.8C46.6439 8.752 45.1719 7.184 43.1879 6.096C41.2039 4.976 38.7079 4.416 35.6999 4.416C34.9639 4.416 34.1639 4.432 33.2999 4.464C32.4679 4.496 31.6839 4.56 30.9479 4.656V32.544C31.5559 32.576 32.1639 32.592 32.7719 32.592C33.3799 32.592 34.1159 32.592 34.9799 32.592Z" fill="white"/>
</svg>
